HIERARCHY
ROOT Hips
{
	OFFSET -0.001795 -0.223333 0.028219
	CHANNELS 6 Xposition Yposition Zposition Zrotation Yrotation Xrotation 
	JOINT LeftUpLeg
	{
		OFFSET 0.069520 -0.091406 -0.006815
		CHANNELS 3 Zrotation Yrotation Xrotation
		JOINT LeftLeg
		{
			OFFSET 0.034277 -0.375199 -0.004496
			CHANNELS 3 Zrotation Yrotation Xrotation
			JOINT LeftFoot
			{
				OFFSET -0.013596 -0.397961 -0.043693
				CHANNELS 3 Zrotation Yrotation Xrotation
				JOINT LeftToe
				{
					OFFSET 0.026358 -0.055791 0.119288
					CHANNELS 3 Zrotation Yrotation Xrotation
					End Site
					{
						OFFSET 0.000000 0.000000 0.000000
					}
				}
			}
		}
	}
	JOINT RightUpLeg
	{
		OFFSET -0.067670 -0.090522 -0.004320
		CHANNELS 3 Zrotation Yrotation Xrotation
		JOINT RightLeg
		{
			OFFSET -0.038290 -0.382569 -0.008850
			CHANNELS 3 Zrotation Yrotation Xrotation
			JOINT RightFoot
			{
				OFFSET 0.015774 -0.398415 -0.042312
				CHANNELS 3 Zrotation Yrotation Xrotation
				JOINT RightToe
				{
					OFFSET -0.025372 -0.048144 0.123348
					CHANNELS 3 Zrotation Yrotation Xrotation
					End Site
					{
						OFFSET 0.000000 0.000000 0.000000
					}
				}
			}
		}
	}
	JOINT Spine
	{
		OFFSET -0.002533 0.108963 -0.026696
		CHANNELS 3 Zrotation Yrotation Xrotation
		JOINT Spine1
		{
			OFFSET 0.005487 0.135180 0.001092
			CHANNELS 3 Zrotation Yrotation Xrotation
			JOINT Spine2
			{
				OFFSET 0.001457 0.052922 0.025425
				CHANNELS 3 Zrotation Yrotation Xrotation
				JOINT Neck
				{
					OFFSET -0.002778 0.213870 -0.042857
					CHANNELS 3 Zrotation Yrotation Xrotation
					JOINT Head
					{
						OFFSET 0.005152 0.064970 0.051349
						CHANNELS 3 Zrotation Yrotation Xrotation
						End Site
						{
							OFFSET 0.000000 0.000000 0.000000
						}
					}
				}
				JOINT LeftShoulder
				{
					OFFSET 0.078845 0.121749 -0.034090
					CHANNELS 3 Zrotation Yrotation Xrotation
					JOINT LeftArm
					{
						OFFSET 0.090977 0.030469 -0.008868
						CHANNELS 3 Zrotation Yrotation Xrotation
						JOINT LeftForeArm
						{
							OFFSET 0.259612 -0.012772 -0.027456
							CHANNELS 3 Zrotation Yrotation Xrotation
							JOINT LeftHand
							{
								OFFSET 0.249234 0.008986 -0.001171
								CHANNELS 3 Zrotation Yrotation Xrotation
								End Site
								{
									OFFSET 0.000000 0.000000 0.000000
								}
							}
						}
					}
				}
				JOINT RightShoulder
				{
					OFFSET -0.081759 0.118833 -0.038615
					CHANNELS 3 Zrotation Yrotation Xrotation
					JOINT RightArm
					{
						OFFSET -0.096012 0.032551 -0.009143
						CHANNELS 3 Zrotation Yrotation Xrotation
						JOINT RightForeArm
						{
							OFFSET -0.253742 -0.013329 -0.021401
							CHANNELS 3 Zrotation Yrotation Xrotation
							JOINT RightHand
							{
								OFFSET -0.255298 0.007772 -0.005559
								CHANNELS 3 Zrotation Yrotation Xrotation
								End Site
								{
									OFFSET 0.000000 0.000000 0.000000
								}
							}
						}
					}
				}
			}
		}
	}
}
MOTION
Frames: 10
Frame Time: 0.050000
0.001005 0.952564 -0.035481 -2.974635 -8.097315 6.247509 8.192064 0.064388 3.976379 -1.420463 0.537815 -12.647675 6.500147 14.728260 19.363113 0.000000 0.000000 0.000000 -0.165501 -0.152634 1.659987 0.046421 -0.386558 -12.642227 1.980592 -4.926359 18.125669 0.000000 0.000000 0.000000 0.751762 0.178386 -3.567838 3.027596 0.345239 -31.755654 -2.529341 8.678015 28.894823 13.913502 -5.382359 -28.406463 0.000000 0.000000 0.000000 -19.241351 6.442427 -5.441795 -49.688312 -7.572115 -5.014179 -15.821502 -28.171320 5.349153 0.000000 0.000000 0.000000 -37.721580 0.179532 -0.124286 -10.676922 24.951175 -2.435773 -70.861960 -1.349431 3.132039 0.000000 0.000000 0.000000 
0.000506 0.952675 -0.036050 -3.041770 -8.428850 6.360755 8.288014 0.060957 3.742911 -1.472315 0.531248 -12.358730 6.700369 14.969138 19.415870 0.000000 0.000000 0.000000 -0.212606 -0.134210 1.493491 0.268463 -0.376708 -12.665344 2.160238 -4.708192 18.184290 0.000000 0.000000 0.000000 0.950045 0.196250 -3.834559 2.903746 0.348589 -31.514720 -2.470550 8.930888 28.940208 13.970545 -5.437258 -28.288373 0.000000 0.000000 0.000000 -19.174936 6.229795 -5.314479 -49.585044 -7.807058 -4.920472 -15.211431 -28.641812 5.283779 0.000000 0.000000 0.000000 -37.756582 0.445952 -0.131636 -10.501574 25.117423 -2.437953 -69.675049 -1.245402 3.015425 0.000000 0.000000 0.000000 
0.000065 0.952711 -0.036649 -2.977175 -8.585012 6.506394 8.229945 0.056995 3.516175 -1.471051 0.529230 -12.259441 6.790309 15.076386 19.498054 0.000000 0.000000 0.000000 -0.428247 -0.102428 1.298449 0.560221 -0.368010 -12.709468 2.233544 -4.623941 18.219024 0.000000 0.000000 0.000000 0.932137 0.204594 -3.968867 2.922743 0.343236 -31.458046 -2.429024 9.026559 29.063537 13.713978 -5.325992 -28.145779 0.000000 0.000000 0.000000 -19.417807 6.203582 -5.338220 -49.254448 -8.028337 -4.815069 -15.123768 -29.175708 5.369527 0.000000 0.000000 0.000000 -38.015752 0.646619 -0.132326 -10.342430 25.089522 -2.414615 -69.128514 -0.915707 2.779937 0.000000 0.000000 0.000000 
-0.000321 0.952887 -0.037286 -3.002077 -8.744775 6.683755 8.246794 0.048785 3.206673 -1.435316 0.522182 -12.052223 6.899842 15.206506 19.571543 0.000000 0.000000 0.000000 -0.435853 -0.071685 0.958349 0.647625 -0.360858 -12.540827 2.303991 -4.539508 18.218283 0.000000 0.000000 0.000000 1.001533 0.219307 -4.182730 2.916330 0.342121 -31.456539 -2.358273 9.089013 29.257795 13.525890 -5.273756 -27.963967 0.000000 0.000000 0.000000 -19.600897 6.347539 -5.433007 -49.155213 -8.213011 -4.753902 -15.029798 -29.773373 5.473882 0.000000 0.000000 0.000000 -38.178431 0.892406 -0.135784 -9.956319 25.114497 -2.378261 -69.352576 -0.458195 2.483449 0.000000 0.000000 0.000000 
-0.000706 0.952936 -0.037951 -2.970986 -8.560322 6.794441 8.375688 0.031264 2.929069 -1.618983 0.519152 -11.929728 6.812992 15.101598 19.543251 0.000000 0.000000 0.000000 -0.487255 -0.057852 0.837170 0.766841 -0.361710 -12.586966 2.216098 -4.670247 18.267672 0.000000 0.000000 0.000000 1.047806 0.220137 -4.203883 2.829947 0.369901 -31.647652 -2.305131 9.109631 29.401721 13.375396 -5.131035 -28.170826 0.000000 0.000000 0.000000 -19.440807 6.387024 -5.459738 -48.971086 -8.345280 -4.691220 -15.522183 -30.553797 5.753677 0.000000 0.000000 0.000000 -37.928942 1.109611 -0.186833 -9.506953 25.047433 -2.305942 -70.731285 -0.053197 2.344049 0.000000 0.000000 0.000000 
-0.001108 0.953069 -0.038608 -2.989347 -8.464011 6.835782 8.408262 0.023398 2.754123 -1.558280 0.512065 -11.804318 6.776124 15.057077 19.549255 0.000000 0.000000 0.000000 -0.412488 -0.050508 0.702945 0.743182 -0.362325 -12.476879 2.167139 -4.738503 18.266091 0.000000 0.000000 0.000000 1.222964 0.227244 -4.294226 2.742605 0.381074 -31.635198 -2.292101 9.215289 29.426351 13.344075 -5.112779 -28.067710 0.000000 0.000000 0.000000 -19.274101 6.509574 -5.537841 -48.626049 -8.243391 -4.696188 -16.135479 -31.296974 6.059989 0.000000 0.000000 0.000000 -37.520778 1.366392 -0.232209 -8.982601 25.244747 -2.262489 -72.678118 0.137454 2.374730 0.000000 0.000000 0.000000 
-0.001438 0.952959 -0.039227 -2.942485 -8.300004 6.937830 8.379516 0.012068 2.543587 -1.508035 0.508073 -11.776173 6.706567 14.974797 19.520415 0.000000 0.000000 0.000000 -0.535311 -0.023651 0.485120 0.944944 -0.358818 -12.337922 2.056844 -4.862834 18.195256 0.000000 0.000000 0.000000 1.317734 0.237136 -4.448905 2.599894 0.418233 -31.835449 -2.197535 9.222295 29.725221 13.103530 -4.955719 -28.141282 0.000000 0.000000 0.000000 -19.212353 6.730591 -5.673188 -48.286399 -8.293300 -4.663959 -16.831123 -32.089629 6.421481 0.000000 0.000000 0.000000 -36.990630 1.506108 -0.281889 -8.455111 25.462956 -2.225423 -75.435150 -0.341919 2.887736 0.000000 0.000000 0.000000 
-0.001684 0.952977 -0.039815 -2.932674 -7.953932 7.042734 8.282715 -0.002040 2.324432 -1.234748 0.499460 -11.800469 6.547687 14.786871 19.493148 0.000000 0.000000 0.000000 -0.445272 -0.018616 0.369957 0.863628 -0.366033 -12.343997 1.884881 -5.098656 18.219345 0.000000 0.000000 0.000000 1.431602 0.251392 -4.670747 2.444860 0.441932 -31.871280 -2.089442 9.269555 29.840931 12.977802 -4.854834 -28.108708 0.000000 0.000000 0.000000 -19.146670 6.851309 -5.797209 -48.199407 -8.333469 -4.629959 -17.291694 -32.657583 6.652657 0.000000 0.000000 0.000000 -36.397301 1.776769 -0.355294 -7.803384 25.848201 -2.178765 -78.262836 -0.699552 3.454679 0.000000 0.000000 0.000000 
-0.001789 0.952759 -0.040373 -2.881432 -7.622204 7.090810 8.170461 -0.009736 2.292295 -1.037216 0.502183 -12.047412 6.374301 14.581831 19.468805 0.000000 0.000000 0.000000 -0.517806 -0.009361 0.313154 0.970509 -0.369390 -12.353601 1.703670 -5.324700 18.183049 0.000000 0.000000 0.000000 1.633201 0.267539 -4.899476 2.111085 0.484348 -31.760080 -1.928971 9.290658 29.878586 12.797574 -4.660066 -28.389611 0.000000 0.000000 0.000000 -18.963978 6.809688 -5.800536 -48.339837 -8.519540 -4.554244 -17.330529 -32.832620 6.675348 0.000000 0.000000 0.000000 -35.899549 2.123380 -0.406768 -7.322984 26.256895 -2.151103 -80.940049 -1.249283 4.195598 0.000000 0.000000 0.000000 
-0.001855 0.952837 -0.040962 -2.775964 -7.328282 6.926818 7.954992 -0.004556 2.465228 -0.778784 0.503452 -12.253363 6.187605 14.359999 19.500293 0.000000 0.000000 0.000000 -0.667799 -0.016437 0.485629 1.100791 -0.371989 -12.379008 1.557669 -5.516521 18.200655 0.000000 0.000000 0.000000 1.606599 0.262950 -4.854574 2.058869 0.507153 -32.012053 -1.780588 9.393456 30.217542 12.615895 -4.468646 -28.676308 0.000000 0.000000 0.000000 -18.880820 6.721727 -5.805352 -48.576643 -8.343630 -4.653887 -17.147464 -33.025675 6.635763 0.000000 0.000000 0.000000 -35.193622 2.355833 -0.501905 -7.236817 26.953634 -2.195766 -83.159814 -1.464232 4.657061 0.000000 0.000000 0.000000 
